<?xml version="1.0" encoding="UTF-8"?>
<svg id="Layer_1" xmlns="http://www.w3.org/2000/svg" version="1.1" viewBox="0 0 82 82">
  <!-- Generator: Adobe Illustrator 30.0.0, SVG Export Plug-In . SVG Version: 2.1.1 Build 123)  -->
  <defs>
    <style>
      .st0 {
        fill-rule: evenodd;
      }

      .st0, .st1 {
        fill: #fff;
      }
    </style>
  </defs>
  <g>
    <path class="st0" d="M36.98,54.34c-.45.04-.89.07-1.34.07-7.41,0-13.41-6-13.41-13.41s6-13.41,13.41-13.41c.45,0,.9.02,1.34.07v4.02c-.44-.05-.89-.08-1.34-.07-5.18,0-9.39,4.2-9.39,9.39s4.2,9.39,9.39,9.39c.45,0,.9-.01,1.34-.07v4.02Z"/>
    <path class="st0" d="M59.77,54.34c-.45.04-.89.07-1.34.07-7.41,0-13.41-6-13.41-13.41s6-13.41,13.41-13.41c.45,0,.9.02,1.34.07v4.02c-.44-.05-.89-.08-1.34-.07-4.41,0-8.23,3.07-9.17,7.38h7.83v4.02h-7.83c.94,4.31,4.76,7.38,9.17,7.38.45,0,.9-.01,1.34-.07v4.02Z"/>
  </g>
  <path class="st1" d="M41,68.94c-15.41,0-27.94-12.53-27.94-27.94s12.53-27.94,27.94-27.94,27.94,12.53,27.94,27.94-12.53,27.94-27.94,27.94ZM41,14.06c-14.86,0-26.94,12.09-26.94,26.94s12.08,26.94,26.94,26.94,26.94-12.09,26.94-26.94-12.09-26.94-26.94-26.94Z"/>
  <path class="st1" d="M41,73.88c-18.13,0-32.88-14.75-32.88-32.88S22.87,8.11,41,8.11s32.88,14.75,32.88,32.88-14.75,32.88-32.88,32.88ZM41,9.11c-17.58,0-31.88,14.3-31.88,31.88s14.3,31.88,31.88,31.88,31.88-14.3,31.88-31.88-14.3-31.88-31.88-31.88Z"/>
</svg>