<?xml version="1.0" encoding="UTF-8"?>
<svg id="Layer_1" xmlns="http://www.w3.org/2000/svg" version="1.1" viewBox="0 0 82 82">
  <!-- Generator: Adobe Illustrator 30.0.0, SVG Export Plug-In . SVG Version: 2.1.1 Build 123)  -->
  <defs>
    <style>
      .st0 {
        fill: #fff;
      }
    </style>
  </defs>
  <path class="st0" d="M41,68.94c-15.41,0-27.94-12.53-27.94-27.94s12.53-27.94,27.94-27.94,27.94,12.53,27.94,27.94-12.53,27.94-27.94,27.94ZM41,14.06c-14.85,0-26.94,12.09-26.94,26.94s12.09,26.94,26.94,26.94,26.94-12.09,26.94-26.94-12.09-26.94-26.94-26.94Z"/>
  <path class="st0" d="M41,73.88c-18.13,0-32.88-14.75-32.88-32.88S22.87,8.11,41,8.11s32.88,14.75,32.88,32.88-14.75,32.88-32.88,32.88ZM41,9.11c-17.58,0-31.88,14.3-31.88,31.88s14.3,31.88,31.88,31.88,31.88-14.3,31.88-31.88-14.3-31.88-31.88-31.88Z"/>
  <g>
    <polygon class="st0" points="30.32 36.93 30.32 33.15 20.45 33.15 20.45 36.93 22.72 36.93 22.72 45.02 20.45 45.02 20.45 48.8 30.32 48.8 30.32 45.02 28.06 45.02 28.06 36.93 30.32 36.93"/>
    <path class="st0" d="M41.21,39.16c-.61-.18-3.75-1.08-4.29-1.25s-.99-.43-.99-.75.5-.67,1.51-.67c3.18,0,4.71,1.96,4.71,1.96,0,0,.17.23.23.31h3.07v-5.35h-3.3v.97c-.25-.17-2.11-1.39-4.99-1.39-3.8,0-5.92,1.97-5.92,4.92s2.67,4.17,3.42,4.48,3.65,1.13,4.89,1.52,1.7.67,1.7.86-.54.72-2.1.72c-2.7,0-4.1-1.59-4.34-1.9h0c-.08-.11-.17-.23-.2-.28-.04-.05-.12-.17-.18-.26h-3.07v5.72h3.45v-1.19c.4.27,2.45,1.55,4.92,1.55,2.75,0,6.25-1.2,6.25-4.93s-4.16-4.87-4.77-5.05Z"/>
    <path class="st0" d="M54.73,32.94c-4.58,0-8.34,2.29-8.34,8.14s4.08,8.04,8.36,8.04,8.32-2.17,8.32-7.98-4.04-8.2-8.34-8.2ZM54.77,45.22c-1.57,0-2.57-.36-2.57-4.16s.74-4.2,2.63-4.2c1.15,0,2.53.08,2.53,4.08s-1.03,4.28-2.59,4.28Z"/>
    <g>
      <path class="st0" d="M27.03,31.43c1.03-1.52,2.3-2.87,3.75-3.99.59.43,1.21.83,1.87,1.18-1.1,1.23-2.09,2.58-2.25,2.81h.66c.4-.53,1.22-1.61,2.08-2.56.94.46,1.95.84,3,1.13-.28.59-.49,1.11-.61,1.43h.57c.13-.33.32-.79.57-1.29,1.34.33,2.74.51,4.17.54v.75h.53v-.75c1.42-.01,2.81-.17,4.14-.48.23.48.41.91.54,1.23h.57c-.12-.31-.32-.79-.58-1.36,1.07-.28,2.09-.65,3.05-1.1.83.93,1.61,1.95,1.99,2.46h.66c-.16-.22-1.09-1.51-2.15-2.71.73-.38,1.42-.81,2.07-1.28,1.45,1.12,2.72,2.47,3.75,3.99h.64c-3.15-4.86-8.62-8.08-14.83-8.08s-11.68,3.22-14.83,8.08h.64ZM36.37,29.51c-1-.27-1.95-.62-2.85-1.05.12-.13.24-.25.37-.37,1.23-1.19,3.26-2.5,3.71-2.78.36.2.75.37,1.17.5-.33.43-.96,1.29-1.66,2.39-.27.43-.52.88-.73,1.31ZM40.83,30.14c-1.35-.03-2.67-.19-3.93-.49.2-.39.42-.78.65-1.16.8-1.27,1.52-2.22,1.77-2.53.48.11.99.18,1.51.21v3.97h0ZM41.36,30.14v-3.96c.51,0,1.01-.06,1.5-.16.28.36.96,1.27,1.72,2.47.25.39.48.81.69,1.22-1.26.28-2.57.43-3.9.44ZM45.8,29.58c-.23-.45-.48-.93-.77-1.38-.66-1.04-1.27-1.87-1.61-2.32.45-.13.87-.29,1.25-.48.62.4,2.44,1.6,3.58,2.69.15.15.3.3.46.46-.92.42-1.89.77-2.91,1.03ZM51.2,27.1c-.62.45-1.29.85-1.99,1.21-.2-.21-.39-.41-.59-.6-1.06-1.03-2.65-2.1-3.43-2.61.26-.17.51-.36.72-.57,1.92.55,3.71,1.43,5.29,2.57ZM41.21,23.88c1.41,0,2.77.17,4.08.49-.99.81-2.48,1.28-4.08,1.28s-3.09-.47-4.08-1.28c1.31-.32,2.68-.49,4.08-.49ZM36.51,24.53c.18.17.37.32.57.47-.7.45-2.44,1.61-3.58,2.71-.16.16-.33.33-.49.5-.63-.33-1.23-.7-1.8-1.11,1.58-1.14,3.37-2.02,5.29-2.57Z"/>
      <path class="st0" d="M55.4,50.57c-1.01,1.49-2.24,2.81-3.66,3.92-.67-.51-1.4-.96-2.16-1.35.92-1.04,1.75-2.15,2.05-2.56h-.66c-.41.55-1.12,1.47-1.88,2.32-.96-.46-1.99-.83-3.05-1.1.23-.48.4-.91.52-1.22h-.58c-.12.3-.28.67-.48,1.09-1.33-.3-2.72-.47-4.14-.48v-.61h-.53v.61c-1.43.03-2.83.21-4.17.54-.21-.44-.38-.84-.51-1.15h-.58c.13.32.32.77.56,1.29-1.05.29-2.05.67-3,1.13-.79-.87-1.55-1.85-1.97-2.42h-.66c.32.43,1.19,1.6,2.15,2.67-.69.37-1.35.79-1.96,1.25-1.41-1.11-2.65-2.43-3.66-3.92h-.64c3.15,4.86,8.62,8.08,14.83,8.08s11.68-3.22,14.83-8.08h-.64ZM45.8,52.28c1.02.26,1.99.6,2.91,1.03-.15.16-.31.32-.46.46-1.13,1.09-2.94,2.29-3.57,2.69-.39-.2-.81-.36-1.25-.49.34-.45.95-1.28,1.6-2.32.29-.45.54-.93.77-1.38ZM41.36,51.71c1.34,0,2.65.16,3.9.44-.2.4-.44.82-.69,1.22-.76,1.2-1.45,2.11-1.72,2.47-.48-.1-.98-.15-1.5-.16v-3.96h0ZM40.83,51.72v3.97c-.52.02-1.03.09-1.51.21-.24-.31-.96-1.26-1.76-2.52-.24-.38-.46-.77-.65-1.16,1.26-.3,2.58-.47,3.93-.49ZM36.37,52.34c.22.43.46.88.73,1.31.7,1.1,1.33,1.96,1.66,2.39-.42.13-.81.3-1.17.5-.45-.28-2.47-1.59-3.71-2.78-.12-.12-.24-.24-.37-.37.9-.43,1.86-.78,2.85-1.05ZM31.13,54.83c.59-.44,1.23-.83,1.89-1.18.16.17.33.34.49.5,1.14,1.1,2.87,2.25,3.57,2.71-.25.18-.48.37-.68.58-1.92-.56-3.7-1.45-5.28-2.61ZM41.21,58.12c-1.45,0-2.86-.18-4.21-.52.98-.86,2.55-1.39,4.21-1.39s3.22.52,4.21,1.39c-1.35.34-2.76.52-4.21.52ZM46.02,57.43c-.24-.25-.52-.48-.83-.68.78-.51,2.36-1.58,3.42-2.61.2-.19.39-.39.59-.6.74.37,1.44.8,2.09,1.28-1.58,1.15-3.36,2.04-5.28,2.61Z"/>
    </g>
  </g>
</svg>